<mxfile host="app.diagrams.net" modified="2021-10-18T16:29:53.629Z" agent="5.0 (Windows)" etag="UMtI3iEMb7Dtby1VJYe7" version="15.4.3" type="github">
  <diagram id="2xBDR9W28CXiXde3CtkU" name="Page-1">
    <mxGraphModel dx="1673" dy="885" grid="1" gridSize="10" guides="1" tooltips="1" connect="1" arrows="1" fold="1" page="1" pageScale="1" pageWidth="2339" pageHeight="3300" math="0" shadow="0">
      <root>
        <mxCell id="0" />
        <mxCell id="1" parent="0" />
        <mxCell id="-9_YCbOYtv__-7vVKfqo-7" style="edgeStyle=orthogonalEdgeStyle;rounded=0;orthogonalLoop=1;jettySize=auto;html=1;fontSize=14;" edge="1" parent="1" source="xCNZ6DgmVLcftK3sah_s-1" target="-9_YCbOYtv__-7vVKfqo-6">
          <mxGeometry relative="1" as="geometry" />
        </mxCell>
        <mxCell id="xCNZ6DgmVLcftK3sah_s-1" value="&lt;font style=&quot;font-size: 14px&quot;&gt;useCases&lt;/font&gt;" style="rounded=0;whiteSpace=wrap;html=1;" parent="1" vertex="1">
          <mxGeometry x="60" y="50" width="150" height="80" as="geometry" />
        </mxCell>
        <mxCell id="-9_YCbOYtv__-7vVKfqo-4" style="edgeStyle=orthogonalEdgeStyle;rounded=0;orthogonalLoop=1;jettySize=auto;html=1;entryX=0;entryY=0.5;entryDx=0;entryDy=0;fontSize=14;" edge="1" parent="1" source="-9_YCbOYtv__-7vVKfqo-2" target="-9_YCbOYtv__-7vVKfqo-3">
          <mxGeometry relative="1" as="geometry" />
        </mxCell>
        <mxCell id="-9_YCbOYtv__-7vVKfqo-2" value="adapters" style="rounded=0;whiteSpace=wrap;html=1;fontSize=14;" vertex="1" parent="1">
          <mxGeometry x="60" y="150" width="150" height="60" as="geometry" />
        </mxCell>
        <mxCell id="-9_YCbOYtv__-7vVKfqo-3" value="обертка над локал сторедж, связующие между редаксом и приложением" style="rounded=0;whiteSpace=wrap;html=1;fontSize=14;" vertex="1" parent="1">
          <mxGeometry x="300" y="140" width="210" height="80" as="geometry" />
        </mxCell>
        <mxCell id="-9_YCbOYtv__-7vVKfqo-10" style="edgeStyle=orthogonalEdgeStyle;rounded=0;orthogonalLoop=1;jettySize=auto;html=1;entryX=0;entryY=0.5;entryDx=0;entryDy=0;fontSize=14;" edge="1" parent="1" source="-9_YCbOYtv__-7vVKfqo-5" target="-9_YCbOYtv__-7vVKfqo-8">
          <mxGeometry relative="1" as="geometry" />
        </mxCell>
        <mxCell id="-9_YCbOYtv__-7vVKfqo-5" value="Entities" style="rounded=0;whiteSpace=wrap;html=1;fontSize=14;" vertex="1" parent="1">
          <mxGeometry x="60" y="250" width="150" height="60" as="geometry" />
        </mxCell>
        <mxCell id="-9_YCbOYtv__-7vVKfqo-6" value="описывает учасника и прецедент, пример - добавление корзины, работа с товарами, оформление, наши сценарии" style="rounded=0;whiteSpace=wrap;html=1;fontSize=14;" vertex="1" parent="1">
          <mxGeometry x="280" y="20" width="380" height="100" as="geometry" />
        </mxCell>
        <mxCell id="-9_YCbOYtv__-7vVKfqo-8" value="бизнес логика" style="rounded=0;whiteSpace=wrap;html=1;fontSize=14;" vertex="1" parent="1">
          <mxGeometry x="274" y="245" width="280" height="70" as="geometry" />
        </mxCell>
        <mxCell id="-9_YCbOYtv__-7vVKfqo-9" style="edgeStyle=orthogonalEdgeStyle;rounded=0;orthogonalLoop=1;jettySize=auto;html=1;exitX=0.5;exitY=1;exitDx=0;exitDy=0;fontSize=14;" edge="1" parent="1" source="-9_YCbOYtv__-7vVKfqo-3" target="-9_YCbOYtv__-7vVKfqo-3">
          <mxGeometry relative="1" as="geometry" />
        </mxCell>
        <mxCell id="-9_YCbOYtv__-7vVKfqo-15" style="edgeStyle=orthogonalEdgeStyle;rounded=0;orthogonalLoop=1;jettySize=auto;html=1;entryX=0;entryY=0.5;entryDx=0;entryDy=0;fontSize=14;" edge="1" parent="1" source="-9_YCbOYtv__-7vVKfqo-11" target="-9_YCbOYtv__-7vVKfqo-12">
          <mxGeometry relative="1" as="geometry" />
        </mxCell>
        <mxCell id="-9_YCbOYtv__-7vVKfqo-11" value="vievsModel" style="rounded=0;whiteSpace=wrap;html=1;fontSize=14;" vertex="1" parent="1">
          <mxGeometry x="60" y="330" width="150" height="60" as="geometry" />
        </mxCell>
        <mxCell id="-9_YCbOYtv__-7vVKfqo-12" value="визуальное представление, реализация" style="rounded=0;whiteSpace=wrap;html=1;fontSize=14;" vertex="1" parent="1">
          <mxGeometry x="264" y="340" width="300" height="60" as="geometry" />
        </mxCell>
        <mxCell id="-9_YCbOYtv__-7vVKfqo-16" style="edgeStyle=orthogonalEdgeStyle;rounded=0;orthogonalLoop=1;jettySize=auto;html=1;entryX=0;entryY=0.5;entryDx=0;entryDy=0;fontSize=14;" edge="1" parent="1" source="-9_YCbOYtv__-7vVKfqo-13" target="-9_YCbOYtv__-7vVKfqo-14">
          <mxGeometry relative="1" as="geometry" />
        </mxCell>
        <mxCell id="-9_YCbOYtv__-7vVKfqo-13" value="layouts" style="rounded=0;whiteSpace=wrap;html=1;fontSize=14;" vertex="1" parent="1">
          <mxGeometry x="60" y="420" width="150" height="60" as="geometry" />
        </mxCell>
        <mxCell id="-9_YCbOYtv__-7vVKfqo-14" value="общие шаблоны, сборщики компонентов, это здание, компоненты кирпечи" style="rounded=0;whiteSpace=wrap;html=1;fontSize=14;" vertex="1" parent="1">
          <mxGeometry x="258" y="420" width="296" height="60" as="geometry" />
        </mxCell>
        <mxCell id="-9_YCbOYtv__-7vVKfqo-17" value="infrastructure" style="rounded=0;whiteSpace=wrap;html=1;fontSize=14;" vertex="1" parent="1">
          <mxGeometry x="60" y="500" width="160" height="60" as="geometry" />
        </mxCell>
        <mxCell id="-9_YCbOYtv__-7vVKfqo-18" value="хелперы, конфиги, константы, глобальные типы" style="rounded=0;whiteSpace=wrap;html=1;fontSize=14;" vertex="1" parent="1">
          <mxGeometry x="274" y="500" width="440" height="70" as="geometry" />
        </mxCell>
        <mxCell id="-9_YCbOYtv__-7vVKfqo-20" value="domains" style="rounded=0;whiteSpace=wrap;html=1;fontSize=14;" vertex="1" parent="1">
          <mxGeometry x="60" y="584.5" width="160" height="65.5" as="geometry" />
        </mxCell>
        <mxCell id="-9_YCbOYtv__-7vVKfqo-21" value="бизнес логика именно здесь, получение товаров расчеты, проверка пользователя, и тд тут лежат entities и usecases" style="rounded=0;whiteSpace=wrap;html=1;fontSize=14;" vertex="1" parent="1">
          <mxGeometry x="274" y="590" width="356" height="60" as="geometry" />
        </mxCell>
        <mxCell id="-9_YCbOYtv__-7vVKfqo-22" value="Repository" style="rounded=0;whiteSpace=wrap;html=1;fontSize=14;" vertex="1" parent="1">
          <mxGeometry x="60" y="670" width="160" height="60" as="geometry" />
        </mxCell>
        <mxCell id="-9_YCbOYtv__-7vVKfqo-23" value="наше подключение к базе, наше апи" style="rounded=0;whiteSpace=wrap;html=1;fontSize=14;" vertex="1" parent="1">
          <mxGeometry x="264" y="670" width="516" height="60" as="geometry" />
        </mxCell>
        <mxCell id="-9_YCbOYtv__-7vVKfqo-24" value="&#xa;Interactor&#xa;&#xa;" style="rounded=0;whiteSpace=wrap;html=1;fontSize=14;" vertex="1" parent="1">
          <mxGeometry x="60" y="750" width="170" height="60" as="geometry" />
        </mxCell>
        <mxCell id="-9_YCbOYtv__-7vVKfqo-25" value="находит над usecase, он обрабатывает запросы к базе и отдает дальше кейсам, допустим проверка статусов" style="rounded=0;whiteSpace=wrap;html=1;fontSize=14;" vertex="1" parent="1">
          <mxGeometry x="264" y="750" width="526" height="60" as="geometry" />
        </mxCell>
        <mxCell id="-9_YCbOYtv__-7vVKfqo-26" style="edgeStyle=orthogonalEdgeStyle;rounded=0;orthogonalLoop=1;jettySize=auto;html=1;exitX=1;exitY=0.5;exitDx=0;exitDy=0;fontSize=14;" edge="1" parent="1" source="-9_YCbOYtv__-7vVKfqo-6" target="-9_YCbOYtv__-7vVKfqo-6">
          <mxGeometry relative="1" as="geometry">
            <Array as="points">
              <mxPoint x="410" y="60" />
              <mxPoint x="410" y="60" />
            </Array>
          </mxGeometry>
        </mxCell>
        <mxCell id="-9_YCbOYtv__-7vVKfqo-34" style="edgeStyle=orthogonalEdgeStyle;rounded=0;orthogonalLoop=1;jettySize=auto;html=1;exitX=1;exitY=0.5;exitDx=0;exitDy=0;entryX=0;entryY=0.5;entryDx=0;entryDy=0;fontSize=14;" edge="1" parent="1" source="-9_YCbOYtv__-7vVKfqo-28" target="-9_YCbOYtv__-7vVKfqo-33">
          <mxGeometry relative="1" as="geometry" />
        </mxCell>
        <mxCell id="-9_YCbOYtv__-7vVKfqo-28" value="vievs, тут лежит кнопка" style="rounded=0;whiteSpace=wrap;html=1;fontSize=14;" vertex="1" parent="1">
          <mxGeometry x="80" y="1180" width="120" height="60" as="geometry" />
        </mxCell>
        <mxCell id="-9_YCbOYtv__-7vVKfqo-78" style="edgeStyle=orthogonalEdgeStyle;rounded=0;orthogonalLoop=1;jettySize=auto;html=1;exitX=1;exitY=1;exitDx=0;exitDy=0;fontSize=16;" edge="1" parent="1" source="-9_YCbOYtv__-7vVKfqo-29" target="-9_YCbOYtv__-7vVKfqo-36">
          <mxGeometry relative="1" as="geometry" />
        </mxCell>
        <mxCell id="-9_YCbOYtv__-7vVKfqo-79" style="edgeStyle=orthogonalEdgeStyle;rounded=0;orthogonalLoop=1;jettySize=auto;html=1;entryX=0;entryY=0.5;entryDx=0;entryDy=0;fontSize=16;" edge="1" parent="1" source="-9_YCbOYtv__-7vVKfqo-29" target="-9_YCbOYtv__-7vVKfqo-37">
          <mxGeometry relative="1" as="geometry" />
        </mxCell>
        <mxCell id="-9_YCbOYtv__-7vVKfqo-29" value="компонент, корзина" style="rounded=0;whiteSpace=wrap;html=1;fontSize=14;" vertex="1" parent="1">
          <mxGeometry x="470" y="1180" width="130" height="60" as="geometry" />
        </mxCell>
        <mxCell id="-9_YCbOYtv__-7vVKfqo-30" value="Presenter" style="rounded=0;whiteSpace=wrap;html=1;fontSize=14;" vertex="1" parent="1">
          <mxGeometry x="60" y="840" width="180" height="60" as="geometry" />
        </mxCell>
        <mxCell id="-9_YCbOYtv__-7vVKfqo-31" value="наши обработкичи событый, по клику и тд, там же касмтомные хуки" style="rounded=0;whiteSpace=wrap;html=1;fontSize=14;" vertex="1" parent="1">
          <mxGeometry x="264" y="840" width="526" height="60" as="geometry" />
        </mxCell>
        <mxCell id="-9_YCbOYtv__-7vVKfqo-35" style="edgeStyle=orthogonalEdgeStyle;rounded=0;orthogonalLoop=1;jettySize=auto;html=1;entryX=0;entryY=0.5;entryDx=0;entryDy=0;fontSize=14;" edge="1" parent="1" source="-9_YCbOYtv__-7vVKfqo-33" target="-9_YCbOYtv__-7vVKfqo-29">
          <mxGeometry relative="1" as="geometry" />
        </mxCell>
        <mxCell id="-9_YCbOYtv__-7vVKfqo-45" style="edgeStyle=orthogonalEdgeStyle;rounded=0;orthogonalLoop=1;jettySize=auto;html=1;fontSize=14;" edge="1" parent="1" source="-9_YCbOYtv__-7vVKfqo-33" target="-9_YCbOYtv__-7vVKfqo-33">
          <mxGeometry relative="1" as="geometry">
            <mxPoint x="430" y="1210" as="targetPoint" />
            <Array as="points" />
          </mxGeometry>
        </mxCell>
        <mxCell id="-9_YCbOYtv__-7vVKfqo-33" value="Presenter, обработчик кнопки, вызов диспача" style="rounded=0;whiteSpace=wrap;html=1;fontSize=14;" vertex="1" parent="1">
          <mxGeometry x="244" y="1180" width="180" height="60" as="geometry" />
        </mxCell>
        <mxCell id="-9_YCbOYtv__-7vVKfqo-80" style="edgeStyle=orthogonalEdgeStyle;rounded=0;orthogonalLoop=1;jettySize=auto;html=1;entryX=0.5;entryY=1;entryDx=0;entryDy=0;fontSize=16;" edge="1" parent="1" source="-9_YCbOYtv__-7vVKfqo-36" target="-9_YCbOYtv__-7vVKfqo-37">
          <mxGeometry relative="1" as="geometry" />
        </mxCell>
        <mxCell id="-9_YCbOYtv__-7vVKfqo-36" value="&lt;br&gt;Interactor, проверка пользователя, стоп лист и тд" style="rounded=0;whiteSpace=wrap;html=1;fontSize=14;" vertex="1" parent="1">
          <mxGeometry x="640" y="1310" width="190" height="90" as="geometry" />
        </mxCell>
        <mxCell id="-9_YCbOYtv__-7vVKfqo-81" style="edgeStyle=orthogonalEdgeStyle;rounded=0;orthogonalLoop=1;jettySize=auto;html=1;entryX=0;entryY=0.5;entryDx=0;entryDy=0;fontSize=16;" edge="1" parent="1" source="-9_YCbOYtv__-7vVKfqo-37" target="-9_YCbOYtv__-7vVKfqo-38">
          <mxGeometry relative="1" as="geometry" />
        </mxCell>
        <mxCell id="-9_YCbOYtv__-7vVKfqo-83" style="edgeStyle=orthogonalEdgeStyle;rounded=0;orthogonalLoop=1;jettySize=auto;html=1;exitX=1;exitY=0;exitDx=0;exitDy=0;entryX=0;entryY=1;entryDx=0;entryDy=0;fontSize=16;" edge="1" parent="1" source="-9_YCbOYtv__-7vVKfqo-37" target="-9_YCbOYtv__-7vVKfqo-40">
          <mxGeometry relative="1" as="geometry" />
        </mxCell>
        <mxCell id="-9_YCbOYtv__-7vVKfqo-84" style="edgeStyle=orthogonalEdgeStyle;rounded=0;orthogonalLoop=1;jettySize=auto;html=1;exitX=1;exitY=1;exitDx=0;exitDy=0;fontSize=16;" edge="1" parent="1" source="-9_YCbOYtv__-7vVKfqo-37" target="-9_YCbOYtv__-7vVKfqo-39">
          <mxGeometry relative="1" as="geometry" />
        </mxCell>
        <mxCell id="-9_YCbOYtv__-7vVKfqo-37" value="&lt;font style=&quot;font-size: 14px&quot;&gt;useCases, сценария логика добавления, так же может взять на себя проверку пользователя, &lt;br&gt;&lt;/font&gt;" style="rounded=0;whiteSpace=wrap;html=1;" vertex="1" parent="1">
          <mxGeometry x="640" y="1165" width="190" height="90" as="geometry" />
        </mxCell>
        <mxCell id="-9_YCbOYtv__-7vVKfqo-82" style="edgeStyle=orthogonalEdgeStyle;rounded=0;orthogonalLoop=1;jettySize=auto;html=1;exitX=0;exitY=0.75;exitDx=0;exitDy=0;entryX=1;entryY=0.75;entryDx=0;entryDy=0;fontSize=16;" edge="1" parent="1" source="-9_YCbOYtv__-7vVKfqo-38" target="-9_YCbOYtv__-7vVKfqo-37">
          <mxGeometry relative="1" as="geometry">
            <Array as="points">
              <mxPoint x="590" y="1091" />
              <mxPoint x="590" y="1140" />
              <mxPoint x="850" y="1140" />
              <mxPoint x="850" y="1233" />
            </Array>
          </mxGeometry>
        </mxCell>
        <mxCell id="-9_YCbOYtv__-7vVKfqo-38" value="Entities, отправка на бек данных и получение обратно, где передает обратно в usecase" style="rounded=0;whiteSpace=wrap;html=1;fontSize=14;" vertex="1" parent="1">
          <mxGeometry x="620" y="1030" width="210" height="95" as="geometry" />
        </mxCell>
        <mxCell id="-9_YCbOYtv__-7vVKfqo-85" style="edgeStyle=orthogonalEdgeStyle;rounded=0;orthogonalLoop=1;jettySize=auto;html=1;exitX=1;exitY=0;exitDx=0;exitDy=0;fontSize=16;" edge="1" parent="1" source="-9_YCbOYtv__-7vVKfqo-39" target="-9_YCbOYtv__-7vVKfqo-43">
          <mxGeometry relative="1" as="geometry" />
        </mxCell>
        <mxCell id="-9_YCbOYtv__-7vVKfqo-39" value="редюсер" style="rounded=0;whiteSpace=wrap;html=1;fontSize=14;fillColor=none;" vertex="1" parent="1">
          <mxGeometry x="890" y="1300" width="220" height="90" as="geometry" />
        </mxCell>
        <mxCell id="-9_YCbOYtv__-7vVKfqo-40" value="Repository, метод добавления в корзину" style="rounded=0;whiteSpace=wrap;html=1;fontSize=14;" vertex="1" parent="1">
          <mxGeometry x="880" y="1060" width="190" height="60" as="geometry" />
        </mxCell>
        <mxCell id="-9_YCbOYtv__-7vVKfqo-41" value="TDO" style="rounded=0;whiteSpace=wrap;html=1;fontSize=14;fillColor=none;" vertex="1" parent="1">
          <mxGeometry x="60" y="930" width="180" height="60" as="geometry" />
        </mxCell>
        <mxCell id="-9_YCbOYtv__-7vVKfqo-42" value="передачаданных между слоями у нас это редакс" style="rounded=0;whiteSpace=wrap;html=1;fontSize=14;fillColor=none;" vertex="1" parent="1">
          <mxGeometry x="264" y="930" width="516" height="60" as="geometry" />
        </mxCell>
        <mxCell id="-9_YCbOYtv__-7vVKfqo-86" style="edgeStyle=orthogonalEdgeStyle;rounded=0;orthogonalLoop=1;jettySize=auto;html=1;fontSize=16;" edge="1" parent="1" source="-9_YCbOYtv__-7vVKfqo-43" target="-9_YCbOYtv__-7vVKfqo-44">
          <mxGeometry relative="1" as="geometry" />
        </mxCell>
        <mxCell id="-9_YCbOYtv__-7vVKfqo-43" value="адаптеры, обрабатывают данные пришедшие из редакса и отдают приложению в нужном виде, если нужно" style="rounded=0;whiteSpace=wrap;html=1;fontSize=14;fillColor=none;" vertex="1" parent="1">
          <mxGeometry x="1150" y="1160" width="230" height="110" as="geometry" />
        </mxCell>
        <mxCell id="-9_YCbOYtv__-7vVKfqo-44" value="vievModel, которая уже получает данные и реализует их" style="rounded=0;whiteSpace=wrap;html=1;fontSize=14;fillColor=none;" vertex="1" parent="1">
          <mxGeometry x="1430" y="1160" width="170" height="110" as="geometry" />
        </mxCell>
        <mxCell id="-9_YCbOYtv__-7vVKfqo-46" value="&lt;div align=&quot;left&quot;&gt;&lt;span style=&quot;font-size: 16px&quot; class=&quot;final-path&quot;&gt;application&lt;/span&gt;&lt;span style=&quot;font-size: 16px&quot; class=&quot;final-path&quot;&gt;&lt;br&gt;&lt;/span&gt;&lt;span style=&quot;font-size: 16px&quot; class=&quot;final-path&quot;&gt;&lt;/span&gt;&lt;/div&gt;" style="rounded=0;whiteSpace=wrap;html=1;fontSize=14;fillColor=none;align=left;" vertex="1" parent="1">
          <mxGeometry x="990" y="10" width="100" height="30" as="geometry" />
        </mxCell>
        <mxCell id="-9_YCbOYtv__-7vVKfqo-47" value="domain&amp;nbsp; " style="rounded=0;whiteSpace=wrap;html=1;fontSize=16;fillColor=none;align=left;" vertex="1" parent="1">
          <mxGeometry x="1000" y="170" width="120" height="20" as="geometry" />
        </mxCell>
        <mxCell id="-9_YCbOYtv__-7vVKfqo-49" value="&lt;b&gt;Entities&lt;/b&gt;" style="rounded=0;whiteSpace=wrap;html=1;fontSize=16;fillColor=none;align=left;" vertex="1" parent="1">
          <mxGeometry x="1150" y="170" width="120" height="30" as="geometry" />
        </mxCell>
        <mxCell id="-9_YCbOYtv__-7vVKfqo-50" value="Interactor," style="rounded=0;whiteSpace=wrap;html=1;fontSize=16;fillColor=none;align=left;" vertex="1" parent="1">
          <mxGeometry x="1150" y="210" width="120" height="30" as="geometry" />
        </mxCell>
        <mxCell id="-9_YCbOYtv__-7vVKfqo-51" value="core - основные, корзины, привецтвие" style="rounded=0;whiteSpace=wrap;html=1;fontSize=16;fillColor=none;align=left;" vertex="1" parent="1">
          <mxGeometry x="1150" y="472.5" width="250" height="40" as="geometry" />
        </mxCell>
        <mxCell id="-9_YCbOYtv__-7vVKfqo-52" value="servises" style="rounded=0;whiteSpace=wrap;html=1;fontSize=16;fillColor=none;align=left;" vertex="1" parent="1">
          <mxGeometry x="1000" y="300" width="120" height="30" as="geometry" />
        </mxCell>
        <mxCell id="-9_YCbOYtv__-7vVKfqo-54" value="use-case" style="rounded=0;whiteSpace=wrap;html=1;fontSize=16;fillColor=none;align=left;" vertex="1" parent="1">
          <mxGeometry x="1150" y="250" width="120" height="30" as="geometry" />
        </mxCell>
        <mxCell id="-9_YCbOYtv__-7vVKfqo-55" value="components" style="rounded=0;whiteSpace=wrap;html=1;fontSize=16;fillColor=none;align=left;" vertex="1" parent="1">
          <mxGeometry x="1000" y="420" width="120" height="40" as="geometry" />
        </mxCell>
        <mxCell id="-9_YCbOYtv__-7vVKfqo-56" value="common - общие(лодеры и тд) " style="rounded=0;whiteSpace=wrap;html=1;fontSize=16;fillColor=none;align=left;" vertex="1" parent="1">
          <mxGeometry x="1150" y="420" width="250" height="40" as="geometry" />
        </mxCell>
        <mxCell id="-9_YCbOYtv__-7vVKfqo-58" value="redux" style="rounded=0;whiteSpace=wrap;html=1;fontSize=16;fillColor=none;align=left;" vertex="1" parent="1">
          <mxGeometry x="1150" y="315" width="120" height="30" as="geometry" />
        </mxCell>
        <mxCell id="-9_YCbOYtv__-7vVKfqo-59" value="presentation" style="rounded=0;whiteSpace=wrap;html=1;fontSize=16;fillColor=none;align=left;" vertex="1" parent="1">
          <mxGeometry x="1000" y="512.5" width="120" height="35" as="geometry" />
        </mxCell>
        <mxCell id="-9_YCbOYtv__-7vVKfqo-60" value="view" style="rounded=0;whiteSpace=wrap;html=1;fontSize=16;fillColor=none;align=left;" vertex="1" parent="1">
          <mxGeometry x="1150" y="530" width="120" height="30" as="geometry" />
        </mxCell>
        <mxCell id="-9_YCbOYtv__-7vVKfqo-61" value="Layout" style="rounded=0;whiteSpace=wrap;html=1;fontSize=16;fillColor=none;align=left;" vertex="1" parent="1">
          <mxGeometry x="1150" y="570" width="120" height="30" as="geometry" />
        </mxCell>
        <mxCell id="-9_YCbOYtv__-7vVKfqo-62" value="Presenter" style="rounded=0;whiteSpace=wrap;html=1;fontSize=16;fillColor=none;align=left;" vertex="1" parent="1">
          <mxGeometry x="1150" y="610" width="120" height="30" as="geometry" />
        </mxCell>
        <mxCell id="-9_YCbOYtv__-7vVKfqo-63" value="adapters" style="rounded=0;whiteSpace=wrap;html=1;fontSize=16;fillColor=none;align=left;" vertex="1" parent="1">
          <mxGeometry x="1130" y="10" width="120" height="20" as="geometry" />
        </mxCell>
        <mxCell id="-9_YCbOYtv__-7vVKfqo-64" value="interfaises" style="rounded=0;whiteSpace=wrap;html=1;fontSize=16;fillColor=none;align=left;" vertex="1" parent="1">
          <mxGeometry x="1130" y="40" width="120" height="20" as="geometry" />
        </mxCell>
        <mxCell id="-9_YCbOYtv__-7vVKfqo-66" value="contstans" style="rounded=0;whiteSpace=wrap;html=1;fontSize=16;fillColor=none;align=left;" vertex="1" parent="1">
          <mxGeometry x="1130" y="70" width="120" height="20" as="geometry" />
        </mxCell>
        <mxCell id="-9_YCbOYtv__-7vVKfqo-68" value="helpers" style="rounded=0;whiteSpace=wrap;html=1;fontSize=16;fillColor=none;align=left;" vertex="1" parent="1">
          <mxGeometry x="1130" y="100" width="120" height="20" as="geometry" />
        </mxCell>
        <mxCell id="-9_YCbOYtv__-7vVKfqo-69" value="Repository" style="rounded=0;whiteSpace=wrap;html=1;fontSize=16;fillColor=none;align=left;" vertex="1" parent="1">
          <mxGeometry x="1150" y="350" width="120" height="20" as="geometry" />
        </mxCell>
        <mxCell id="-9_YCbOYtv__-7vVKfqo-70" value="utils" style="rounded=0;whiteSpace=wrap;html=1;fontSize=16;fillColor=none;align=left;" vertex="1" parent="1">
          <mxGeometry x="1150" y="380" width="120" height="20" as="geometry" />
        </mxCell>
        <mxCell id="-9_YCbOYtv__-7vVKfqo-71" value="" style="rounded=0;whiteSpace=wrap;html=1;fontSize=16;fillColor=none;align=left;" vertex="1" parent="1">
          <mxGeometry x="790" y="320" width="120" height="60" as="geometry" />
        </mxCell>
        <mxCell id="-9_YCbOYtv__-7vVKfqo-72" value="адаптеры такие как прослойка между селекторами и вивьювером, в целом все адаптеры, общение типы, интерфейсы, константы, хелеперы, все что связанно глобально в приложении тут, самый внешний круг" style="rounded=0;whiteSpace=wrap;html=1;fontSize=16;fillColor=none;align=left;" vertex="1" parent="1">
          <mxGeometry x="1320" y="5" width="530" height="130" as="geometry" />
        </mxCell>
        <mxCell id="-9_YCbOYtv__-7vVKfqo-73" value="бизнес логика, поведение сценариев, проверка статусов, тут запросы к базе в кейсах, так же энтии, которые являются чистыми, посути это логика редакса, чистые функции которые что-то делают с данными, они вложены хранятся в кейсах, интертор, может быть надстройой на кейсами и энтити, и с крещен с адаптерами, это самые нижние круги&amp;nbsp; " style="rounded=0;whiteSpace=wrap;html=1;fontSize=16;fillColor=none;align=left;" vertex="1" parent="1">
          <mxGeometry x="1320" y="160" width="640" height="120" as="geometry" />
        </mxCell>
        <mxCell id="-9_YCbOYtv__-7vVKfqo-74" value="все стороние серивисы, которые будут работать через адаптеры, репозиторий - это апи, этот слой находится после кейсов но до энтити, " style="rounded=0;whiteSpace=wrap;html=1;fontSize=16;fillColor=none;align=left;" vertex="1" parent="1">
          <mxGeometry x="1320" y="315" width="700" height="95" as="geometry" />
        </mxCell>
        <mxCell id="-9_YCbOYtv__-7vVKfqo-75" value="стандартные компоненты, глобальные и основные такие как корзина, оформление, они являются нашей серединой фреймворком, в которых лежат вьверы они и являются viewModel и viewInterfaise, тут получение данных" style="rounded=0;whiteSpace=wrap;html=1;fontSize=16;fillColor=none;align=left;" vertex="1" parent="1">
          <mxGeometry x="1430" y="430" width="640" height="80" as="geometry" />
        </mxCell>
        <mxCell id="-9_YCbOYtv__-7vVKfqo-76" value="шаблонная часть, лейаут, является строителем, в нем лежат компоненты, вьюверы мелкие копонентные части, пресентер - это кастомные хуки и хендлеры&lt;br&gt;это тоже внешний круг" style="rounded=0;whiteSpace=wrap;html=1;fontSize=16;fillColor=none;align=left;" vertex="1" parent="1">
          <mxGeometry x="1310" y="530" width="740" height="110" as="geometry" />
        </mxCell>
        <mxCell id="-9_YCbOYtv__-7vVKfqo-77" value="route - дейфолтный роут" style="rounded=0;whiteSpace=wrap;html=1;fontSize=16;fillColor=none;align=left;" vertex="1" parent="1">
          <mxGeometry x="1000" y="670" width="120" height="60" as="geometry" />
        </mxCell>
      </root>
    </mxGraphModel>
  </diagram>
</mxfile>
